<svg xmlns="http://www.w3.org/2000/svg" viewBox="0 0 320 320" role="img" aria-labelledby="title desc">
  <title id="title">Platzhalter für Spenden-QR-Code</title>
  <desc id="desc">Bitte durch den finalen EPC-QR-Code mit echten Spendenkontodaten ersetzen.</desc>
  <rect width="320" height="320" fill="#fff"/>
  <rect x="14" y="14" width="292" height="292" fill="none" stroke="#1f2a2e" stroke-width="6"/>
  <rect x="34" y="34" width="66" height="66" fill="#1f2a2e"/>
  <rect x="44" y="44" width="46" height="46" fill="#fff"/>
  <rect x="52" y="52" width="30" height="30" fill="#1f2a2e"/>
  <rect x="220" y="34" width="66" height="66" fill="#1f2a2e"/>
  <rect x="230" y="44" width="46" height="46" fill="#fff"/>
  <rect x="238" y="52" width="30" height="30" fill="#1f2a2e"/>
  <rect x="34" y="220" width="66" height="66" fill="#1f2a2e"/>
  <rect x="44" y="230" width="46" height="46" fill="#fff"/>
  <rect x="52" y="238" width="30" height="30" fill="#1f2a2e"/>
  <g fill="#1f2a2e">
    <rect x="122" y="128" width="14" height="14"/>
    <rect x="144" y="128" width="14" height="14"/>
    <rect x="166" y="128" width="14" height="14"/>
    <rect x="188" y="128" width="14" height="14"/>
    <rect x="122" y="150" width="14" height="14"/>
    <rect x="166" y="150" width="14" height="14"/>
    <rect x="210" y="150" width="14" height="14"/>
    <rect x="122" y="172" width="14" height="14"/>
    <rect x="144" y="172" width="14" height="14"/>
    <rect x="188" y="172" width="14" height="14"/>
    <rect x="210" y="172" width="14" height="14"/>
    <rect x="144" y="194" width="14" height="14"/>
    <rect x="166" y="194" width="14" height="14"/>
    <rect x="188" y="194" width="14" height="14"/>
  </g>
  <text x="160" y="304" text-anchor="middle" font-family="Barlow, Arial, sans-serif" font-size="14" fill="#5b6469">
    QR-Code hier ersetzen
  </text>
</svg>
